<svg xmlns="http://www.w3.org/2000/svg" xmlns:xlink="http://www.w3.org/1999/xlink" width="128" zoomAndPan="magnify" viewBox="0 0 96 95.999999" height="128" preserveAspectRatio="xMidYMid meet" version="1.0"><defs><clipPath id="dded715b27"><path d="M 3.511719 16.859375 L 92.761719 16.859375 L 92.761719 79.109375 L 3.511719 79.109375 Z M 3.511719 16.859375 " clip-rule="nonzero"/></clipPath></defs><path fill="#ffffff" d="M 40.050781 29.277344 C 39.753906 28.984375 39.308594 28.984375 38.863281 29.277344 C 38.566406 29.425781 38.269531 29.871094 38.269531 30.3125 L 38.269531 62.546875 C 38.269531 62.992188 38.566406 63.289062 38.863281 63.582031 C 39.011719 63.730469 39.160156 63.730469 39.457031 63.730469 C 39.605469 63.730469 39.902344 63.730469 40.050781 63.582031 L 64.683594 47.464844 C 64.980469 47.316406 65.128906 46.875 65.128906 46.578125 C 65.128906 46.285156 64.980469 45.839844 64.683594 45.691406 Z M 40.496094 60.476562 L 40.496094 32.382812 L 62.011719 46.429688 Z M 40.496094 60.476562 " fill-opacity="1" fill-rule="nonzero"/><g clip-path="url(#dded715b27)"><path fill="#ffffff" d="M 78.183594 16.859375 L 17.941406 16.859375 C 10.226562 16.859375 3.992188 23.070312 3.992188 30.757812 L 3.992188 65.210938 C 3.992188 72.898438 10.226562 79.109375 17.941406 79.109375 L 78.332031 79.109375 C 86.050781 79.109375 92.28125 72.898438 92.28125 65.210938 L 92.28125 30.90625 C 92.28125 23.214844 85.902344 16.859375 78.183594 16.859375 Z M 89.90625 65.210938 C 89.90625 71.714844 84.566406 76.890625 78.183594 76.890625 L 17.941406 76.890625 C 11.410156 76.890625 6.21875 71.566406 6.21875 65.210938 L 6.21875 30.90625 C 6.21875 24.398438 11.558594 19.222656 17.941406 19.222656 L 78.332031 19.222656 C 84.863281 19.222656 90.054688 24.546875 90.054688 30.90625 L 90.054688 65.210938 Z M 89.90625 65.210938 " fill-opacity="1" fill-rule="nonzero"/></g></svg>