<svg xmlns="http://www.w3.org/2000/svg" xmlns:xlink="http://www.w3.org/1999/xlink" width="128" zoomAndPan="magnify" viewBox="0 0 96 95.999999" height="128" preserveAspectRatio="xMidYMid meet" version="1.0"><defs><clipPath id="48a8109df4"><path d="M 6.214844 17.066406 L 89.464844 17.066406 L 89.464844 78.566406 L 6.214844 78.566406 Z M 6.214844 17.066406 " clip-rule="nonzero"/></clipPath></defs><g clip-path="url(#48a8109df4)"><path fill="#542344" d="M 31.640625 18.324219 C 27.007812 19.3125 21.785156 21.425781 18.953125 23.535156 C 17.195312 24.792969 16.433594 25.871094 14.8125 29.242188 C 10.535156 38.089844 7.296875 50.9375 6.621094 61.71875 C 6.308594 66.390625 6.308594 66.4375 7.613281 68.277344 C 10.3125 72.230469 17.105469 76.050781 24.214844 77.667969 C 26.511719 78.207031 28.851562 78.566406 29.4375 78.476562 C 30.15625 78.386719 31.328125 77.308594 32.902344 75.195312 C 34.296875 73.308594 35.554688 72.050781 36.050781 72.097656 C 36.457031 72.140625 38.390625 72.367188 40.328125 72.679688 C 44.824219 73.308594 50.855469 73.308594 55.355469 72.679688 C 57.289062 72.367188 59.226562 72.140625 59.628906 72.097656 C 60.125 72.050781 61.386719 73.308594 62.78125 75.195312 C 64.355469 77.308594 65.527344 78.386719 66.246094 78.476562 C 66.832031 78.566406 69.171875 78.207031 71.464844 77.667969 C 78.574219 76.050781 85.371094 72.230469 88.070312 68.277344 C 89.375 66.4375 89.375 66.390625 89.058594 61.808594 C 88.382812 50.9375 85.144531 38.179688 80.871094 29.242188 C 79.25 25.871094 78.484375 24.792969 76.730469 23.535156 C 73.714844 21.335938 68.585938 19.3125 63.230469 18.191406 C 58.054688 17.15625 57.425781 17.292969 56.617188 19.71875 L 56.074219 21.246094 L 39.5625 21.246094 L 39.246094 20.03125 C 38.480469 17.203125 37.761719 17.066406 31.640625 18.324219 Z M 68.316406 23.3125 C 73.175781 24.929688 75.515625 26.726562 77.269531 30.003906 C 81.183594 37.460938 84.738281 51.296875 85.460938 61.71875 L 85.773438 65.761719 L 83.433594 67.917969 C 80.691406 70.480469 76.011719 72.816406 71.015625 74.074219 L 67.414062 75.015625 L 65.976562 73.308594 C 65.164062 72.367188 64.492188 71.378906 64.492188 71.109375 C 64.492188 70.882812 66.066406 69.984375 68 69.222656 C 72.050781 67.515625 75.738281 64.953125 75.738281 63.832031 C 75.738281 62.886719 74.929688 61.945312 74.074219 61.945312 C 73.761719 61.945312 72.410156 62.664062 71.105469 63.515625 C 68.136719 65.492188 64.128906 67.109375 59.179688 68.324219 C 53.554688 69.714844 42.125 69.714844 36.5 68.324219 C 31.550781 67.109375 27.546875 65.492188 24.578125 63.515625 C 23.273438 62.664062 21.921875 61.945312 21.605469 61.945312 C 20.75 61.945312 19.941406 62.886719 19.941406 63.832031 C 19.941406 64.953125 23.632812 67.515625 27.726562 69.222656 C 29.617188 69.984375 31.191406 70.882812 31.191406 71.109375 C 31.191406 71.378906 30.515625 72.367188 29.707031 73.308594 L 28.265625 75.015625 L 24.667969 74.074219 C 19.671875 72.816406 14.992188 70.480469 12.246094 67.917969 L 9.953125 65.761719 L 10.222656 61.71875 C 10.988281 51.074219 14.675781 36.96875 18.636719 29.601562 C 19.671875 27.667969 20.527344 26.726562 22.328125 25.648438 C 25.207031 23.894531 30.5625 22.054688 33.757812 21.648438 C 37.222656 21.246094 36.769531 22.144531 32.902344 23.3125 C 31.101562 23.851562 28.085938 25.0625 26.152344 26.050781 C 23.226562 27.535156 22.640625 27.984375 22.640625 28.925781 C 22.640625 30.992188 24.082031 31.128906 27.457031 29.464844 C 34.027344 26.1875 39.742188 24.929688 47.839844 24.929688 C 56.03125 24.929688 60.484375 25.871094 67.730469 29.242188 C 71.015625 30.769531 71.78125 30.992188 72.363281 30.5 C 72.726562 30.183594 73.039062 29.464844 73.039062 28.882812 C 73.039062 27.984375 72.410156 27.488281 69.53125 26.050781 C 67.59375 25.0625 64.582031 23.851562 62.78125 23.3125 C 59.71875 22.367188 59.179688 22.007812 59.8125 21.425781 C 60.125 21.109375 64.714844 22.144531 68.316406 23.3125 Z M 68.316406 23.3125 " fill-opacity="1" fill-rule="nonzero"/></g><path fill="#542344" d="M 33.214844 43.257812 C 27.367188 45.863281 26.332031 54.261719 31.328125 58.664062 C 35.285156 62.125 41.046875 60.550781 43.386719 55.429688 C 46.582031 48.421875 39.832031 40.335938 33.214844 43.257812 Z M 38.300781 46.941406 C 40.730469 48.601562 41.316406 52.285156 39.605469 54.800781 C 37.671875 57.675781 34.613281 57.675781 32.675781 54.800781 C 30.382812 51.386719 32.496094 46.222656 36.140625 46.222656 C 36.769531 46.222656 37.761719 46.535156 38.300781 46.941406 Z M 38.300781 46.941406 " fill-opacity="1" fill-rule="nonzero"/><path fill="#542344" d="M 56.617188 43.257812 C 50.765625 45.863281 49.730469 54.261719 54.726562 58.664062 C 58.6875 62.125 64.445312 60.550781 66.785156 55.429688 C 69.980469 48.421875 63.230469 40.335938 56.617188 43.257812 Z M 61.699219 46.941406 C 64.128906 48.601562 64.714844 52.285156 63.003906 54.800781 C 61.070312 57.675781 58.011719 57.675781 56.074219 54.800781 C 53.78125 51.386719 55.894531 46.222656 59.539062 46.222656 C 60.171875 46.222656 61.160156 46.535156 61.699219 46.941406 Z M 61.699219 46.941406 " fill-opacity="1" fill-rule="nonzero"/></svg>