<svg xmlns="http://www.w3.org/2000/svg" xmlns:xlink="http://www.w3.org/1999/xlink" width="128" zoomAndPan="magnify" viewBox="0 0 96 95.999999" height="128" preserveAspectRatio="xMidYMid meet" version="1.0"><defs><clipPath id="752fbd874b"><path d="M 6.199219 6.199219 L 89.449219 6.199219 L 89.449219 89.449219 L 6.199219 89.449219 Z M 6.199219 6.199219 " clip-rule="nonzero"/></clipPath></defs><g clip-path="url(#752fbd874b)"><path fill="#542344" d="M 30.363281 6.199219 C 17.054688 6.199219 6.199219 17.054688 6.199219 30.363281 L 6.199219 65.308594 C 6.199219 78.59375 17.054688 89.449219 30.363281 89.449219 L 65.308594 89.449219 C 78.59375 89.449219 89.449219 78.59375 89.449219 65.285156 L 89.449219 30.363281 C 89.449219 17.054688 78.59375 6.199219 65.285156 6.199219 Z M 30.363281 12.601562 L 65.285156 12.601562 C 75.140625 12.601562 83.046875 20.507812 83.046875 30.363281 L 83.046875 65.285156 C 83.046875 75.140625 75.140625 83.046875 65.308594 83.046875 L 30.363281 83.046875 C 20.507812 83.046875 12.601562 75.140625 12.601562 65.308594 L 12.601562 30.363281 C 12.601562 20.507812 20.507812 12.601562 30.363281 12.601562 Z M 73.441406 19.007812 C 71.664062 19.007812 70.238281 20.433594 70.238281 22.207031 C 70.238281 23.984375 71.664062 25.410156 73.441406 25.410156 C 75.214844 25.410156 76.640625 23.984375 76.640625 22.207031 C 76.640625 20.433594 75.214844 19.007812 73.441406 19.007812 Z M 47.824219 25.410156 C 35.492188 25.410156 25.410156 35.492188 25.410156 47.824219 C 25.410156 60.15625 35.492188 70.238281 47.824219 70.238281 C 60.15625 70.238281 70.238281 60.15625 70.238281 47.824219 C 70.238281 35.492188 60.15625 25.410156 47.824219 25.410156 Z M 47.824219 31.816406 C 56.703125 31.816406 63.832031 38.945312 63.832031 47.824219 C 63.832031 56.703125 56.703125 63.832031 47.824219 63.832031 C 38.945312 63.832031 31.816406 56.703125 31.816406 47.824219 C 31.816406 38.945312 38.945312 31.816406 47.824219 31.816406 Z M 47.824219 31.816406 " fill-opacity="1" fill-rule="nonzero"/></g></svg>