<svg xmlns="http://www.w3.org/2000/svg" xmlns:xlink="http://www.w3.org/1999/xlink" width="128" zoomAndPan="magnify" viewBox="0 0 96 95.999999" height="128" preserveAspectRatio="xMidYMid meet" version="1.0"><defs><clipPath id="f5a740ba0d"><path d="M 3.449219 16.199219 L 92.699219 16.199219 L 92.699219 79.949219 L 3.449219 79.949219 Z M 3.449219 16.199219 " clip-rule="nonzero"/></clipPath></defs><g clip-path="url(#f5a740ba0d)"><path fill="#ffffff" d="M 13.035156 16.199219 C 7.757812 16.199219 3.476562 20.476562 3.476562 25.761719 C 3.597656 40.261719 3.476562 55.609375 3.476562 70.386719 C 3.476562 75.476562 7.433594 79.597656 12.4375 79.902344 L 83.507812 79.949219 C 88.605469 79.746094 92.667969 75.542969 92.667969 70.386719 L 92.667969 24.121094 C 91.894531 19.613281 87.984375 16.199219 83.261719 16.199219 C 59.863281 16.210938 36.441406 16.203125 13.035156 16.199219 Z M 12.886719 21.230469 L 83.558594 21.230469 L 49.367188 55.445312 C 48.742188 56.070312 47.75 56.070312 47.125 55.445312 L 12.882812 21.230469 Z M 87.890625 23.671875 L 87.890625 70.039062 C 87.890625 72.800781 86.894531 74.363281 84.902344 74.921875 L 60.8125 50.765625 Z M 8.804688 23.871094 L 35.433594 50.515625 L 11.09375 74.871094 C 9.429688 74.308594 8.847656 72.964844 8.804688 71.136719 Z M 38.816406 53.851562 L 47.128906 62.21875 C 47.753906 62.84375 48.742188 62.84375 49.367188 62.21875 L 57.429688 54.152344 L 78.433594 75.167969 L 17.515625 75.167969 Z M 38.816406 53.851562 " fill-opacity="1" fill-rule="nonzero"/></g></svg>