<svg xmlns="http://www.w3.org/2000/svg" xmlns:xlink="http://www.w3.org/1999/xlink" width="40" zoomAndPan="magnify" viewBox="0 0 30 30.000001" height="40" preserveAspectRatio="xMidYMid meet" version="1.0"><defs><clipPath id="552fea37f5"><path d="M 2.445312 0.421875 L 27 0.421875 L 27 28 L 2.445312 28 Z M 2.445312 0.421875 " clip-rule="nonzero"/></clipPath></defs><path fill="#ffffff" d="M 18.402344 8.820312 L 18.121094 8.945312 L 19.160156 11.199219 L 18.410156 9.574219 C 18.402344 9.574219 18.390625 9.570312 18.378906 9.574219 C 17.597656 8.34375 15.988281 7.84375 14.601562 8.453125 L 14.101562 8.671875 C 14.101562 8.671875 15.667969 12.078125 15.714844 12.175781 C 15.777344 12.308594 14.332031 9.171875 14.457031 9.441406 C 13.828125 8.078125 12.191406 7.472656 10.796875 8.085938 L 10.082031 8.398438 L 12.363281 13.355469 L 7.359375 2.480469 C 6.875 1.429688 5.613281 0.960938 4.539062 1.433594 C 3.464844 1.90625 2.988281 3.140625 3.46875 4.1875 L 9.820312 17.992188 C 4.027344 16.445312 4.042969 17.304688 3.464844 18.25 C 2.863281 19.238281 3.191406 20.515625 4.203125 21.105469 L 13.167969 26.335938 C 14.285156 26.992188 15.941406 28.316406 20.21875 26.433594 L 22.988281 25.214844 C 25.980469 23.902344 27.308594 20.445312 25.953125 17.5 L 25.738281 17.03125 L 23.898438 13.03125 L 22.695312 10.414062 C 21.957031 8.816406 20.039062 8.101562 18.402344 8.820312 " fill-opacity="1" fill-rule="nonzero"/><g clip-path="url(#552fea37f5)"><path fill="#000000" d="M 4.492188 17.722656 C 4.253906 17.828125 4.152344 18.007812 3.996094 18.277344 C 3.957031 18.347656 3.917969 18.417969 3.875 18.488281 C 3.648438 18.859375 3.582031 19.292969 3.691406 19.710938 C 3.800781 20.132812 4.066406 20.484375 4.449219 20.707031 L 13.410156 25.9375 C 13.488281 25.980469 13.566406 26.03125 13.648438 26.078125 C 14.75 26.75 16.261719 27.664062 20.023438 26.011719 L 22.792969 24.792969 C 25.542969 23.582031 26.765625 20.398438 25.519531 17.691406 L 22.257812 10.605469 C 21.65625 9.292969 20.109375 8.679688 18.753906 9.183594 L 19.59375 11.007812 C 19.703125 11.242188 19.59375 11.515625 19.355469 11.621094 C 19.113281 11.726562 18.832031 11.625 18.726562 11.390625 L 18.039062 9.894531 C 18.015625 9.871094 17.996094 9.847656 17.976562 9.820312 C 17.3125 8.777344 15.945312 8.371094 14.796875 8.875 L 14.730469 8.90625 L 16.148438 11.988281 C 16.257812 12.222656 16.152344 12.5 15.910156 12.605469 C 15.671875 12.710938 15.390625 12.605469 15.28125 12.371094 L 14.023438 9.632812 C 13.503906 8.507812 12.144531 8.003906 10.992188 8.507812 L 10.710938 8.632812 L 12.796875 13.164062 C 12.902344 13.398438 12.796875 13.675781 12.558594 13.78125 C 12.316406 13.886719 12.035156 13.78125 11.925781 13.546875 L 6.921875 2.667969 C 6.550781 1.855469 5.566406 1.492188 4.734375 1.855469 C 3.902344 2.222656 3.527344 3.183594 3.902344 3.996094 L 10.253906 17.800781 C 10.328125 17.964844 10.300781 18.15625 10.179688 18.296875 C 10.0625 18.433594 9.871094 18.488281 9.695312 18.441406 C 7.308594 17.804688 5.742188 17.539062 4.914062 17.625 C 4.734375 17.644531 4.597656 17.675781 4.492188 17.722656 Z M 23.183594 25.640625 L 20.414062 26.859375 C 16.191406 28.714844 14.285156 27.5625 13.148438 26.871094 C 13.070312 26.824219 12.996094 26.777344 12.921875 26.734375 L 3.960938 21.503906 C 3.363281 21.15625 2.9375 20.601562 2.769531 19.941406 C 2.597656 19.28125 2.699219 18.59375 3.058594 18.011719 C 3.09375 17.949219 3.128906 17.886719 3.164062 17.824219 C 3.835938 16.644531 4.628906 16.210938 8.976562 17.292969 L 3.035156 4.378906 C 2.445312 3.097656 3.03125 1.585938 4.34375 1.007812 C 5.65625 0.433594 7.203125 1.007812 7.792969 2.289062 L 10.320312 7.785156 L 10.601562 7.660156 C 11.796875 7.136719 13.148438 7.378906 14.074219 8.171875 L 14.40625 8.027344 C 15.625 7.492188 17.019531 7.699219 18.015625 8.480469 L 18.207031 8.394531 C 20.078125 7.574219 22.285156 8.390625 23.128906 10.222656 L 26.386719 17.308594 C 27.847656 20.484375 26.410156 24.222656 23.183594 25.640625 " fill-opacity="1" fill-rule="nonzero"/></g></svg>